<svg xmlns="http://www.w3.org/2000/svg" viewBox="0 0 100 100" fill="none">
  <defs>
    <linearGradient id="shieldGrad" x1="10" y1="10" x2="90" y2="90" gradientUnits="userSpaceOnUse">
      <stop offset="0%" stop-color="#8b5cf6"/>
      <stop offset="50%" stop-color="#3b82f6"/>
      <stop offset="100%" stop-color="#06b6d4"/>
    </linearGradient>
    <linearGradient id="coreGlow" x1="30" y1="30" x2="70" y2="70" gradientUnits="userSpaceOnUse">
      <stop offset="0%" stop-color="#10b981"/>
      <stop offset="100%" stop-color="#06b6d4"/>
    </linearGradient>
  </defs>
  <path d="M50 12 L82 24 V48 C82 68 68 84 50 90 C32 84 18 68 18 48 V24 L50 12 Z" stroke="url(#shieldGrad)" stroke-width="3.5" fill="#0d1117" stroke-linejoin="round"/>
  <path d="M50 24 V38 M50 38 L36 48 V62 M50 38 L64 48 V62" stroke="#8b5cf6" stroke-width="2.5" stroke-linecap="round"/>
  <circle cx="36" cy="62" r="3" fill="#06b6d4"/>
  <circle cx="64" cy="62" r="3" fill="#06b6d4"/>
  <circle cx="50" cy="38" r="3.5" fill="#8b5cf6"/>
  <circle cx="50" cy="56" r="10" fill="#07090e" stroke="url(#coreGlow)" stroke-width="2.5"/>
  <path d="M46 56 L49 59 L55 53" stroke="#10b981" stroke-width="2.5" stroke-linecap="round" stroke-linejoin="round"/>
  <circle cx="50" cy="22" r="2.5" fill="#a855f7"/>
</svg>
